<svg width="44" height="44" viewBox="0 0 44 44" fill="none" xmlns="http://www.w3.org/2000/svg">
<path d="M22 0L39.2003 8.28322L43.4484 26.8955L31.5454 41.8213H12.4546L0.551586 26.8955L4.79971 8.28322L22 0Z" fill="#507ADC"/>
<g clip-path="url(#clip0_815_18065)">
<path d="M15.5833 31.3333C15.4387 31.3333 15.2975 31.2785 15.189 31.1805C15.0688 31.0697 15 30.9145 15 30.75V14.4167C15 14.2533 15.0688 14.097 15.189 13.9862C15.3103 13.8753 15.469 13.8193 15.6347 13.8357L35.468 15.5857C35.769 15.6125 36 15.8645 36 16.1667V29C36 29.3022 35.769 29.5553 35.468 29.581L15.6347 31.331C15.6172 31.3322 15.6008 31.3333 15.5833 31.3333ZM16.1667 15.0537V30.113L34.8333 28.4657V16.701L16.1667 15.0537Z" fill="#FAFAFA"/>
<path d="M15.5833 31.3333C15.5367 31.3333 15.49 31.3275 15.4422 31.3158L8.44217 29.5658C8.182 29.5017 8 29.2672 8 29V16.1667C8 15.8995 8.182 15.6662 8.44217 15.6008L15.4422 13.8508C15.7502 13.7703 16.071 13.9628 16.1492 14.2755C16.2273 14.587 16.0383 14.9043 15.7245 14.9825L9.16667 16.6228V28.545L15.7245 30.1842C16.0383 30.2623 16.2273 30.5797 16.1492 30.8912C16.0838 31.1572 15.8458 31.3333 15.5833 31.3333Z" fill="#FAFAFA"/>
<path d="M12.0833 30.4583C11.7613 30.4583 11.5 30.197 11.5 29.875V15.2917C11.5 14.9697 11.7613 14.7083 12.0833 14.7083C12.4053 14.7083 12.6667 14.9697 12.6667 15.2917V29.875C12.6667 30.197 12.4053 30.4583 12.0833 30.4583Z" fill="#FAFAFA"/>
<path d="M19.0833 29C18.7613 29 18.5 28.7387 18.5 28.4167V16.75C18.5 16.428 18.7613 16.1667 19.0833 16.1667C19.4053 16.1667 19.6667 16.428 19.6667 16.75V28.4167C19.6667 28.7387 19.4053 29 19.0833 29Z" fill="#FAFAFA"/>
<path d="M23.75 28.4167C23.428 28.4167 23.1666 28.1553 23.1666 27.8333V17.3333C23.1666 17.0113 23.428 16.75 23.75 16.75C24.072 16.75 24.3333 17.0113 24.3333 17.3333V27.8333C24.3333 28.1553 24.072 28.4167 23.75 28.4167Z" fill="#FAFAFA"/>
<path d="M28.4167 27.8333C28.0947 27.8333 27.8334 27.572 27.8334 27.25V17.9167C27.8334 17.5947 28.0947 17.3333 28.4167 17.3333C28.7387 17.3333 29 17.5947 29 17.9167V27.25C29 27.572 28.7387 27.8333 28.4167 27.8333Z" fill="#FAFAFA"/>
<path d="M33.0833 27.25C32.7613 27.25 32.5 26.9887 32.5 26.6667V18.5C32.5 18.178 32.7613 17.9167 33.0833 17.9167C33.4053 17.9167 33.6667 18.178 33.6667 18.5V26.6667C33.6667 26.9887 33.4053 27.25 33.0833 27.25Z" fill="#FAFAFA"/>
</g>
<defs>
<clipPath id="clip0_815_18065">
<rect width="28" height="28" fill="white" transform="translate(8 8)"/>
</clipPath>
</defs>
</svg>
