<svg xmlns="http://www.w3.org/2000/svg" version="1.1" xmlns:xlink="http://www.w3.org/1999/xlink" xmlns:svgjs="http://svgjs.com/svgjs" width="44" height="44" x="0" y="0" viewBox="0 0 480 480" style="enable-background:new 0 0 512 512" xml:space="preserve" class=""><g><path d="m120 104.036-112 56v168l112 48 352-40v-184l-352-48z" style="" fill="#29485a" data-original="#29485a"></path><path d="M8 160.036v168l48 20.568V136.036l-48 24z" style="" fill="#06aae9" data-original="#06aae9"></path><path d="m120 104.036-64 32v212.568l64 27.432v-272z" style="" fill="#0591c7" data-original="#0591c7"></path><path d="M200 149.372v182.664l48-4V154.7l-48-5.328z" style="" fill="#0378a3" data-original="#0378a3"></path><path d="M152 144.036v192l48-4V149.372l-48-5.336zM248 154.7v173.336l48-4v-164l-48-5.336z" style="" fill="#06aae9" data-original="#06aae9"></path><path d="M296 160.036v164l48-4V165.372l-48-5.336zM440 176.036l-48-5.336v145.336l48-4v-136z" style="" fill="#0378a3" data-original="#0378a3"></path><path d="M344 165.372v154.664l48-4V170.7l-48-5.328z" style="" fill="#06aae9" data-original="#06aae9"></path><path d="m118.632 95.78-2.184 1.088-112 56L0 155.092v178.216l4.848 2.08L59.4 358.764l59.4 25.456L480 343.18V145.052L121.08 96.108l-2.448-.328zM112 116.98V363.9l-48-20.568V140.98l48-24zm-64 32v187.496l-32-13.712V164.98l32-16zm416 179.912-336 38.184v-253.88l336 45.824v169.872z" fill="#000000" data-original="#000000"></path><path d="M32 280.036a8 8 0 0 0 8-8v-56a8 8 0 0 0-16 0v56a8 8 0 0 0 8 8zM88 288.036a8 8 0 0 0 8-8v-64a8 8 0 0 0-16 0v64a8 8 0 0 0 8 8zM146.584 341.924a8.002 8.002 0 0 0 5.416 2.112c.221.012.443.012.664 0l288-24a8 8 0 0 0 7.336-8v-136a8 8 0 0 0-7.12-7.952l-288-32a8 8 0 0 0-8.88 7.952v192a8 8 0 0 0 2.584 5.888zM336 312.676l-32 2.664v-146.4l32 3.56v140.176zm16-138.4 32 3.56v130.84l-32 2.664V174.276zm-64 142.4-32 2.664V163.644l32 3.552v149.48zm-48 4-32 2.664V158.308l32 3.552v158.816zm192-16-32 2.664V179.644l32 3.56v121.472zM160 152.972l32 3.56v168.144l-32 2.664V152.972z" fill="#000000" data-original="#000000"></path></g></svg>
