<?xml version="1.0" standalone="no"?>
<!DOCTYPE svg PUBLIC "-//W3C//DTD SVG 1.0//EN" "http://www.w3.org/TR/2001/REC-SVG-20010904/DTD/svg10.dtd">
<svg xmlns="http://www.w3.org/2000/svg" xmlns:xlink="http://www.w3.org/1999/xlink" id="body_1" width="44" height="44">

<g transform="matrix(0.35807294 0 0 0.35807294 -0 0.00017893812)">
	<g>
        <path d="M61.44 0C 78.399994 0 93.768 6.882 104.893 17.986C 115.996994 29.111 122.879 44.48 122.879 61.439C 122.879 78.4 115.995995 93.767 104.893 104.892C 93.769 115.998 78.4 122.879 61.44 122.879C 44.48 122.879 29.111 115.998 17.986 104.893C 6.882 93.768 0 78.4 0 61.439C 0 44.48 6.882 29.111 17.986 17.986C 29.112 6.882 44.48 0 61.44 0zM73.452 39.152C 76.202 36.36 80.673004 36.347 83.438 39.126C 86.202 41.902 86.213005 46.418 83.465004 49.209L83.465004 49.209L71.4 61.445L83.477005 73.695C 86.205 76.465 86.16601 80.951 83.396 83.716C 80.624 86.482 76.16701 86.47401 73.442 83.704L73.442 83.704L61.445 71.541L49.428 83.729C 46.678 86.521996 42.208 86.534 39.443 83.754C 36.68 80.979 36.667 76.463 39.417 73.672L39.417 73.672L51.48 61.435L39.402 49.185C 36.676 46.416 36.713 41.929 39.484 39.163002C 42.256 36.398003 46.713 36.405003 49.438004 39.176003L49.438004 39.176003L61.435 51.34L73.452 39.152zM96.899 25.98C 87.826 16.907 75.29 11.296 61.44 11.296C 47.588997 11.296 35.053 16.907 25.98 25.980999C 16.907 35.054 11.296 47.589996 11.296 61.44C 11.296 75.29 16.907 87.826996 25.98 96.899C 35.053 105.973 47.588997 111.585 61.44 111.585C 75.29 111.585 87.826 105.974 96.899 96.899C 105.972 87.827 111.583 75.29 111.583 61.440002C 111.583 47.590004 105.973 35.054 96.899 25.98z" stroke="none" fill="#FF4141" fill-rule="nonzero" />
	</g>
</g>
</svg>